#!OML:ASF E:\I on waltz\AllaLogoMonkeySwing\Project 1\Capture day 1\Session 1\Subject1.ASF
:FULLY-SPECIFIED
:DEGREES
505
root 1.58211 6.9723 -1.7191 -27.8536 2.16545 -2.54076
lowerback 53.7451 -2.21251 3.64157
upperback 11.7516 -0.496384 0.630896
thorax -7.80952 -0.183839 -0.757683
lowerneck -3.82651 0.462875 -2.92409
upperneck 4.77306 0.7239 1.26049
head 2.14224 0.340636 0.921507
rclavicle 6.65929e-015 2.32578e-014
rhumerus -24.6828 18.5608 -80.8153
rradius 115.993
rwrist 30.609
rhand -24.7523 -22.2611
rfingers 7.12502
rthumb 1.75083 -52.2337
lclavicle 6.65929e-015 2.32578e-014
lhumerus -25.5149 -13.5238 88.0968
lradius 116.999
lwrist -15.1666
lhand -20.6945 -32.2663
lfingers 7.12502
lthumb 5.6693 -2.36212
rfemur -85.8335 -29.6497 28.0033
rtibia 132.689
rfoot -22.4804 2.68494
rtoes 28.2738
lfemur -84.8092 22.7315 -23.136
ltibia 131.831
lfoot -27.8754 -14.6061
ltoes -8.48492
506
root 1.57548 6.96515 -1.74813 -28.8822 1.73353 -2.42988
lowerback 53.2609 -1.97595 3.35276
upperback 11.7329 -0.394719 0.724812
thorax -7.78816 -0.15154 -0.574071
lowerneck -3.99818 0.493438 -2.9715
upperneck 4.84849 0.778004 1.16449
head 2.19704 0.363917 0.902716
rclavicle -9.44227e-015 -1.5704e-014
rhumerus -24.8522 18.8084 -81.4167
rradius 115.217
rwrist 30.7126
rhand -24.2809 -22.6994
rfingers 7.12502
rthumb 2.20604 -52.6677
lclavicle -9.44227e-015 -1.5704e-014
lhumerus -25.9256 -12.8727 88.8161
lradius 116.58
lwrist -16.0266
lhand -20.2879 -32.6669
lfingers 7.12502
lthumb 6.06191 -2.77361
rfemur -84.401 -29.1198 27.5346
rtibia 132.49
rfoot -22.3191 2.63049
rtoes 28.676
lfemur -83.5329 23.761 -22.5555
ltibia 131.679
lfoot -27.973 -15.1673
ltoes -8.08418
507
root 1.57183 6.95827 -1.7735 -29.8959 1.41029 -2.26781
lowerback 52.7175 -1.74528 3.17427
upperback 11.7908 -0.232952 0.85177
thorax -7.66908 -0.0869032 -0.430961
lowerneck -4.17967 0.426413 -3.28008
upperneck 4.76652 0.709181 1.25255
head 2.20517 0.327434 0.983193
rclavicle 5.96354e-015 -7.95139e-015
rhumerus -25.0707 18.8036 -81.8381
rradius 114.567
rwrist 31.1189
rhand -24.2328 -23.0251
rfingers 7.12502
rthumb 2.25251 -52.993
lclavicle 5.96354e-015 -7.95139e-015
lhumerus -26.4161 -12.7225 89.6808
lradius 116.2
lwrist -16.7575
lhand -20.4569 -33.8409
lfingers 7.12502
lthumb 5.89872 -3.94302
rfemur -82.9895 -28.8222 26.9692
rtibia 132.312
rfoot -22.1934 2.79665
rtoes 29.043
lfemur -82.2039 24.5799 -22.0508
ltibia 131.545
lfoot -28.1091 -15.5296
ltoes -7.78291
508
root 1.57072 6.95074 -1.79316 -30.7582 1.13019 -2.08692
lowerback 52.0547 -1.55809 2.82711
upperback 11.8311 -0.225441 0.889786
thorax -7.55949 -0.0930689 -0.241969
lowerneck -4.30655 0.487397 -3.25298
upperneck 4.60922 0.793923 1.24073
head 2.17433 0.371365 0.977003
rclavicle 5.36719e-015 4.57205e-015
rhumerus -25.1894 19.0277 -82.3731
rradius 113.797
rwrist 31.4308
rhand -24.7394 -22.9699
rfingers 7.12502
rthumb 1.7633 -52.9424
lclavicle 5.36719e-015 4.57205e-015
lhumerus -27.1181 -12.4853 90.2183
lradius 115.874
lwrist -17.3964
lhand -20.9383 -35.4067
lfingers 7.12502
lthumb 5.43392 -5.49638
rfemur -81.8355 -28.5389 26.4543
rtibia 132.172
rfoot -22.0971 2.93003
rtoes 29.3073
lfemur -81.0704 25.2856 -21.6412
ltibia 131.462
lfoot -28.2782 -15.7711
ltoes -7.75186
509
root 1.57136 6.94394 -1.80931 -31.5368 0.78519 -1.98736
lowerback 51.5023 -1.41953 2.38262
upperback 11.8082 -0.324141 0.884274
thorax -7.53035 -0.151589 -0.00725119
lowerneck -4.57104 0.689936 -2.74211
upperneck 4.51074 1.05447 0.951163
head 2.1845 0.50337 0.805632
rclavicle -4.96962e-016 1.98785e-016
rhumerus -25.1817 19.3968 -83.1331
rradius 112.841
rwrist 31.7381
rhand -25.1911 -22.6793
rfingers 7.12502
rthumb 1.32702 -52.6549
lclavicle -4.96962e-016 1.98785e-016
lhumerus -28.0249 -12.0321 90.5393
lradius 115.658
lwrist -18.0243
lhand -21.3937 -36.9128
lfingers 7.12502
lthumb 4.99421 -6.99163
rfemur -80.7862 -28.1399 26.1167
rtibia 132.033
rfoot -22.0296 2.88027
rtoes 29.0607
lfemur -80.0525 26.0863 -21.146
ltibia 131.409
lfoot -28.488 -16.0645
ltoes -7.78084
510
root 1.57338 6.93611 -1.82364 -32.2591 0.424768 -1.95938
lowerback 51.012 -1.29859 2.07295
upperback 11.7465 -0.354867 0.964425
thorax -7.54464 -0.180592 0.23128
lowerneck -4.79578 0.833867 -2.31179
upperneck 4.39616 1.24502 0.540981
head 2.18638 0.595325 0.608208
rclavicle -3.37934e-015 -1.17283e-014
rhumerus -25.3657 19.5245 -83.9337
rradius 111.98
rwrist 32.1858
rhand -25.0873 -22.6117
rfingers 7.12502
rthumb 1.42728 -52.5867
lclavicle -3.37934e-015 -1.17283e-014
lhumerus -29.0989 -11.6886 91.0547
lradius 115.536
lwrist -18.6449
lhand -21.5563 -38.1783
lfingers 7.12502
lthumb 4.83719 -8.25347
rfemur -79.8037 -27.7711 25.9012
rtibia 131.913
rfoot -22.0053 2.85425
rtoes 29.0281
lfemur -79.1239 26.8492 -20.6044
ltibia 131.362
lfoot -28.6218 -16.3964
ltoes -7.28102
511
root 1.57587 6.92627 -1.83401 -32.8172 0.151324 -1.99971
lowerback 50.2724 -1.23908 1.89127
upperback 11.7262 -0.388657 1.10222
thorax -7.47535 -0.209561 0.471641
lowerneck -4.87111 0.925001 -2.09132
upperneck 4.20919 1.3729 0.150301
head 2.13932 0.653291 0.450004
rclavicle 6.26172e-015 -6.55989e-015
rhumerus -25.6933 19.6031 -84.6415
rradius 111.229
rwrist 32.4266
rhand -25.1278 -22.7723
rfingers 7.12502
rthumb 1.38816 -52.7476
lclavicle 6.26172e-015 -6.55989e-015
lhumerus -30.2887 -11.397 91.7099
lradius 115.457
lwrist -19.486
lhand -21.4751 -39.2393
lfingers 7.12502
lthumb 4.91566 -9.31632
rfemur -79.094 -27.5691 25.8152
rtibia 131.838
rfoot -22.0379 2.89046
rtoes 29.2423
lfemur -78.4963 27.3769 -20.1518
ltibia 131.357
lfoot -28.6267 -16.6697
ltoes -6.42498
512
root 1.57845 6.92021 -1.84346 -33.3177 -0.0447575 -1.84282
lowerback 49.5028 -1.08075 1.54379
upperback 11.7419 -0.386866 1.20516
thorax -7.35714 -0.221055 0.736467
lowerneck -5.06803 0.993803 -1.91618
upperneck 4.097 1.46854 -0.0864459
head 2.13947 0.697983 0.349277
rclavicle 6.65929e-015 -8.34896e-015
rhumerus -26.0567 19.5581 -85.2754
rradius 110.481
rwrist 32.6538
rhand -25.2463 -23.2175
rfingers 7.12502
rthumb 1.2737 -53.1935
lclavicle 6.65929e-015 -8.34896e-015
lhumerus -31.4442 -11.1819 92.3923
lradius 115.265
lwrist -20.6563
lhand -21.4486 -40.2033
lfingers 7.12502
lthumb 4.94116 -10.2809
rfemur -78.4228 -27.4253 25.5265
rtibia 131.807
rfoot -22.1233 2.96788
rtoes 29.6947
lfemur -77.7804 27.7778 -19.9244
ltibia 131.349
lfoot -28.7463 -16.6875
ltoes -6.02259
513
root 1.58268 6.91469 -1.85172 -33.744 -0.215347 -1.56199
lowerback 48.7936 -0.866378 1.17164
upperback 11.7201 -0.324946 1.26521
thorax -7.28321 -0.201586 0.943859
lowerneck -5.39266 1.01111 -1.73425
upperneck 4.07359 1.49217 -0.218432
head 2.19276 0.708758 0.279846
rclavicle 6.75868e-015 -1.25234e-014
rhumerus -26.6145 19.3159 -86.0268
rradius 109.806
rwrist 32.871
rhand -25.1342 -24.0648
rfingers 7.12502
rthumb 1.38194 -54.0401
lclavicle 6.75868e-015 -1.25234e-014
lhumerus -32.5247 -11.153 93.0912
lradius 114.891
lwrist -21.8338
lhand -21.6645 -41.215
lfingers 7.12502
lthumb 4.73272 -11.2879
rfemur -77.8189 -27.2728 25.1296
rtibia 131.827
rfoot -22.1926 3.05541
rtoes 30.1415
lfemur -77.0259 28.1297 -19.8447
ltibia 131.358
lfoot -28.9522 -16.6104
ltoes -5.89883
514
root 1.56166 6.8495 -1.81332 -32.1534 -1.12592 -0.760732
lowerback 44.2822 0.0849289 0.0271749
upperback 12.7303 0.240767 1.41849
thorax -6.40793 0.0457153 1.40123
lowerneck -5.69937 1.00477 -1.59977
upperneck 4.02901 1.48602 -0.345541
head 2.236 0.704067 0.21862
rclavicle -3.37934e-015 1.70955e-014
rhumerus -27.2642 19.0531 -86.8346
rradius 109.137
rwrist 32.6575
rhand -25.149 -25.0164
rfingers 7.12502
rthumb 1.36762 -54.9918
lclavicle -3.37934e-015 1.70955e-014
lhumerus -33.5052 -11.2294 93.7815
lradius 114.35
lwrist -22.7673
lhand -22.0456 -42.2259
lfingers 7.12502
lthumb 4.36471 -12.2909
rfemur -80.8473 -25.0614 26.0913
rtibia 132.491
rfoot -21.4039 2.42095
rtoes 30.2527
lfemur -79.8639 30.0051 -20.9909
ltibia 132.059
lfoot -28.8288 -17.1769
ltoes -5.63511
